#N canvas 163 63 1359 748 10;
#X declare -lib mrpeach;
#X obj 72 16 import mrpeach;
#X obj 113 61 udpreceive 8100;
#X obj 113 109 route /scales;
#X obj 113 83 unpackOSC;
#X obj 113 147 unpack f f f f f f;
#X floatatom 14 208 10 0 0 0 - - -;
#X floatatom 94 208 10 0 0 0 - - -;
#X floatatom 168 207 10 0 0 0 - - -;
#X floatatom 248 207 10 0 0 0 - - -;
#X floatatom 316 207 10 0 0 0 - - -;
#X floatatom 395 207 10 0 0 0 - - -;
#X obj 907 357 packOSC;
#X msg 946 380 connect 127.0.0.1 8101;
#X obj 907 432 udpsend;
#X obj 907 253 pack f f f f;
#X msg 907 330 send /changeLight \$1 \$2 \$3 \$4;
#X msg 947 406 disconnect;
#X obj 14 355 change;
#X obj 170 366 change;
#X obj 291 366 change;
#X obj 414 366 change;
#X obj 531 366 change;
#X obj 654 366 change;
#X msg 884 142 \$1 255 0 0;
#X msg 975 141 \$1 0 0 0;
#X obj 802 338 print;
#N canvas 728 153 208 306 colors 0;
#X msg 123 97 255 0 0;
#X msg 123 121 0 255 0;
#X msg 123 145 0 0 255;
#X msg 123 193 127 127 0;
#X msg 123 217 127 0 127;
#X msg 123 169 0 127 127;
#X obj 22 14 inlet;
#X obj 20 264 outlet;
#X msg 123 72 0 0 0;
#X obj 22 37 sel 0 1 2 3 4 5 -1;
#X connect 0 0 7 0;
#X connect 1 0 7 0;
#X connect 2 0 7 0;
#X connect 3 0 7 0;
#X connect 4 0 7 0;
#X connect 5 0 7 0;
#X connect 6 0 9 0;
#X connect 8 0 7 0;
#X connect 9 0 4 0;
#X connect 9 1 3 0;
#X connect 9 2 5 0;
#X connect 9 3 2 0;
#X connect 9 4 1 0;
#X connect 9 5 0 0;
#X connect 9 6 8 0;
#X restore 715 89 pd colors;
#X floatatom 617 91 5 0 0 0 - - -;
#X obj 697 181 print;
#X obj 703 141 pack f f f f;
#X obj 715 111 unpack f f f;
#X obj 617 50 r scale_i;
#X obj 206 400 s id1;
#X obj 324 400 s id2;
#X obj 446 398 s id3;
#X obj 560 399 s id4;
#X obj 688 397 s id5;
#X obj 715 49 r id;
#X obj -35 520 scalesequence 0 1000 500;
#X obj 20 398 s id0;
#X obj 115 519 scalesequence 1 1000 500;
#X obj 266 520 scalesequence 2 1000 500;
#X obj 416 519 scalesequence 3 1000 500;
#X obj 568 519 scalesequence 4 1000 500;
#X obj 718 518 scalesequence 5 1000 500;
#X obj 907 293 l;
#X obj 943 293 delay 1;
#X connect 1 0 3 0;
#X connect 2 0 4 0;
#X connect 3 0 2 0;
#X connect 4 0 5 0;
#X connect 4 1 6 0;
#X connect 4 2 7 0;
#X connect 4 3 8 0;
#X connect 4 4 9 0;
#X connect 4 5 10 0;
#X connect 5 0 17 0;
#X connect 6 0 18 0;
#X connect 7 0 19 0;
#X connect 8 0 20 0;
#X connect 9 0 21 0;
#X connect 10 0 22 0;
#X connect 11 0 13 0;
#X connect 12 0 13 0;
#X connect 14 0 25 0;
#X connect 14 0 45 0;
#X connect 15 0 11 0;
#X connect 16 0 13 0;
#X connect 17 0 39 0;
#X connect 18 0 32 0;
#X connect 19 0 33 0;
#X connect 20 0 34 0;
#X connect 21 0 35 0;
#X connect 22 0 36 0;
#X connect 23 0 14 0;
#X connect 24 0 14 0;
#X connect 26 0 30 0;
#X connect 27 0 29 0;
#X connect 29 0 28 0;
#X connect 29 0 45 0;
#X connect 30 0 29 1;
#X connect 30 1 29 2;
#X connect 30 2 29 3;
#X connect 31 0 27 0;
#X connect 37 0 26 0;
#X connect 45 0 15 0;
#X connect 45 0 46 0;
#X connect 46 0 45 0;
