#N canvas 360 322 1359 748 10;
#X declare -lib mrpeach;
#X obj 72 16 import mrpeach;
#X obj 113 109 route /scales;
#X obj 113 83 unpackOSC;
#X obj 113 147 unpack f f f f f f;
#X obj 907 357 packOSC;
#X obj 907 432 udpsend;
#X msg 907 330 send /changeLight \$1 \$2 \$3 \$4;
#X msg 947 406 disconnect;
#X obj 14 244 change;
#X obj 94 244 change;
#X obj 168 244 change;
#X obj 248 244 change;
#X obj 316 244 change;
#X obj 395 244 change;
#N canvas 728 153 208 306 colors 0;
#X msg 123 97 255 0 0;
#X msg 123 121 0 255 0;
#X msg 123 145 0 0 255;
#X msg 123 193 127 127 0;
#X msg 123 217 127 0 127;
#X msg 123 169 0 127 127;
#X obj 22 14 inlet;
#X obj 20 264 outlet;
#X msg 123 72 0 0 0;
#X obj 22 37 sel 0 1 2 3 4 5 -1;
#X connect 0 0 7 0;
#X connect 1 0 7 0;
#X connect 2 0 7 0;
#X connect 3 0 7 0;
#X connect 4 0 7 0;
#X connect 5 0 7 0;
#X connect 6 0 9 0;
#X connect 8 0 7 0;
#X connect 9 0 4 0;
#X connect 9 1 3 0;
#X connect 9 2 5 0;
#X connect 9 3 2 0;
#X connect 9 4 1 0;
#X connect 9 5 0 0;
#X connect 9 6 8 0;
#X restore 715 89 pd colors;
#X floatatom 617 91 5 0 0 0 - - -;
#X obj 697 181 print;
#X obj 703 141 pack f f f f;
#X obj 715 111 unpack f f f;
#X obj 617 50 r scale_i;
#X obj 94 284 s id1;
#X obj 168 283 s id2;
#X obj 248 284 s id3;
#X obj 316 283 s id4;
#X obj 395 284 s id5;
#X obj 715 49 r id;
#X obj 14 284 s id0;
#X obj 907 293 l;
#X obj 939 217 delay 5;
#N canvas 61 389 880 336 oscToJairo 0;
#X obj 141 190 udpsend;
#X obj 112 113 packOSC;
#X msg 112 65 send /id \$1;
#X msg 196 65 send /scale_i \$1;
#X msg 318 63 send /id0 \$1;
#X obj 104 21 r id;
#X obj 199 31 r scale_i;
#X obj 316 35 r id0;
#X obj 358 36 r id1;
#X obj 398 37 r id2;
#X obj 440 38 r id3;
#X obj 479 39 r id4;
#X obj 521 40 r id5;
#X msg 199 167 disconnect;
#X msg 197 140 connect 10.100.31.177 8110;
#X connect 1 0 0 0;
#X connect 2 0 1 0;
#X connect 3 0 1 0;
#X connect 4 0 1 0;
#X connect 5 0 2 0;
#X connect 6 0 3 0;
#X connect 7 0 4 0;
#X connect 8 0 4 0;
#X connect 9 0 4 0;
#X connect 10 0 4 0;
#X connect 11 0 4 0;
#X connect 12 0 4 0;
#X connect 13 0 0 0;
#X connect 14 0 0 0;
#X restore 862 71 pd oscToJairo;
#X msg 946 380 connect 127.0.0.1 8102;
#X obj 113 61 udpreceive 8103;
#N canvas 625 650 450 300 idhandler 1;
#X obj 76 44 r id0;
#X obj 114 44 r id1;
#X obj 152 44 r id2;
#X obj 190 44 r id3;
#X obj 227 44 r id4;
#X obj 265 44 r id5;
#X obj 76 68 t b f;
#X obj 114 68 t b f;
#X obj 152 68 t b f;
#X obj 190 68 t b f;
#X obj 265 68 t b f;
#X obj 206 157 s id;
#X obj 141 157 s scale_i;
#X msg 76 99 0;
#X msg 114 99 1;
#X msg 152 100 2;
#X msg 190 100 3;
#X msg 227 100 4;
#X msg 265 100 5;
#X obj 227 68 t b f;
#X connect 0 0 6 0;
#X connect 1 0 7 0;
#X connect 2 0 8 0;
#X connect 3 0 9 0;
#X connect 4 0 19 0;
#X connect 5 0 10 0;
#X connect 6 0 13 0;
#X connect 6 1 11 0;
#X connect 7 0 14 0;
#X connect 7 1 11 0;
#X connect 8 0 15 0;
#X connect 8 1 11 0;
#X connect 9 0 16 0;
#X connect 9 1 11 0;
#X connect 10 0 18 0;
#X connect 10 1 11 0;
#X connect 13 0 12 0;
#X connect 14 0 12 0;
#X connect 15 0 12 0;
#X connect 16 0 12 0;
#X connect 17 0 12 0;
#X connect 18 0 12 0;
#X connect 19 0 17 0;
#X connect 19 1 11 0;
#X restore 91 418 pd idhandler;
#X connect 1 0 3 0;
#X connect 2 0 1 0;
#X connect 3 0 8 0;
#X connect 3 1 9 0;
#X connect 3 2 10 0;
#X connect 3 3 11 0;
#X connect 3 4 12 0;
#X connect 3 5 13 0;
#X connect 4 0 5 0;
#X connect 6 0 4 0;
#X connect 7 0 5 0;
#X connect 8 0 26 0;
#X connect 9 0 20 0;
#X connect 10 0 21 0;
#X connect 11 0 22 0;
#X connect 12 0 23 0;
#X connect 13 0 24 0;
#X connect 14 0 18 0;
#X connect 15 0 17 0;
#X connect 17 0 16 0;
#X connect 17 0 27 0;
#X connect 17 0 28 0;
#X connect 18 0 17 1;
#X connect 18 1 17 2;
#X connect 18 2 17 3;
#X connect 19 0 15 0;
#X connect 25 0 14 0;
#X connect 27 0 6 0;
#X connect 28 0 27 0;
#X connect 30 0 5 0;
#X connect 31 0 2 0;
