#N canvas 208 62 534 751 10;
#X floatatom 134 467 5 0 0 0 - - -;
#X obj 134 406 bng 15 250 50 0 empty empty empty 17 7 0 10 -262144
-1 -1;
#X msg 99 418 0;
#X msg 134 315 1;
#X obj 264 122 r id\$1;
#X obj 134 435 counter 2 \$1 5;
#X obj 134 375 metro \$3;
#X obj 134 241 delay \$2;
#X obj 134 185 t b;
#X obj 446 385 f;
#X obj 303 633 s scale_i;
#X obj 304 438 \$1;
#X obj 238 335 t f b;
#X obj 134 502 sel \$1;
#X obj 393 561 pipe;
#X obj 414 494 \$2;
#X obj 393 591 t f b;
#X msg 468 572 -1;
#X obj 303 538 f;
#X obj 304 270 t b b f;
#X obj 355 488 \$3;
#X obj 446 414 s id;
#X obj 414 520 - 100;
#X connect 0 0 12 0;
#X connect 0 0 13 0;
#X connect 1 0 5 0;
#X connect 2 0 6 0;
#X connect 3 0 6 0;
#X connect 4 0 8 0;
#X connect 4 0 19 0;
#X connect 5 0 0 0;
#X connect 6 0 1 0;
#X connect 7 0 3 0;
#X connect 8 0 7 0;
#X connect 9 0 21 0;
#X connect 11 0 18 0;
#X connect 12 0 18 0;
#X connect 12 1 9 0;
#X connect 12 1 20 0;
#X connect 13 0 2 0;
#X connect 14 0 16 0;
#X connect 15 0 22 0;
#X connect 16 0 10 0;
#X connect 16 1 17 0;
#X connect 17 0 21 0;
#X connect 18 0 10 0;
#X connect 18 0 14 0;
#X connect 19 0 11 0;
#X connect 19 1 15 0;
#X connect 19 2 9 0;
#X connect 20 0 22 0;
#X connect 22 0 14 1;
