#N canvas 786 44 571 445 10;
#X obj 70 186 osc~;
#X floatatom 70 156 5 0 0 0 - - -;
#X obj 225 408 dac~ 5 6 8 7 3 4;
#N canvas 974 100 450 300 sounds 0;
#X obj 83 61 table sound1;
#X obj 82 35 table sound0;
#X obj 61 241 soundfiler;
#X msg 30 171 read -resize sounds/voces_01.wav sound0;
#X msg 30 195 read -resize sounds/voces_02.wav sound1;
#X connect 3 0 2 0;
#X connect 4 0 2 0;
#X restore 240 58 pd sounds;
#X obj 154 228 tabplay~ sound0;
#X obj 305 227 tabplay~ sound1;
#N canvas 750 348 595 347 panning1 0;
#X obj 156 146 panner 0;
#X obj 217 145 panner 1;
#X obj 276 145 panner 2;
#X obj 337 144 panner 3;
#X obj 396 144 panner 4;
#X obj 457 143 panner 5;
#X obj 149 12 inlet~;
#X obj 507 18 inlet;
#X obj 164 243 throw~ ch0;
#X obj 235 242 throw~ ch1;
#X obj 306 241 throw~ ch2;
#X obj 377 240 throw~ ch3;
#X obj 448 241 throw~ ch4;
#X obj 519 240 throw~ ch5;
#X obj 156 43 *~ 1;
#X connect 0 0 8 0;
#X connect 1 0 9 0;
#X connect 2 0 10 0;
#X connect 3 0 11 0;
#X connect 4 0 12 0;
#X connect 5 0 13 0;
#X connect 6 0 14 0;
#X connect 7 0 0 1;
#X connect 7 0 1 1;
#X connect 7 0 2 1;
#X connect 7 0 3 1;
#X connect 7 0 4 1;
#X connect 7 0 5 1;
#X connect 14 0 0 0;
#X connect 14 0 1 0;
#X connect 14 0 2 0;
#X connect 14 0 3 0;
#X connect 14 0 4 0;
#X connect 14 0 5 0;
#X restore 155 283 pd panning1;
#N canvas 750 348 595 347 panning1 0;
#X obj 156 43 *~ 0.01;
#X obj 156 146 panner 0;
#X obj 217 145 panner 1;
#X obj 276 145 panner 2;
#X obj 337 144 panner 3;
#X obj 396 144 panner 4;
#X obj 457 143 panner 5;
#X obj 149 12 inlet~;
#X obj 507 18 inlet;
#X obj 164 243 throw~ ch0;
#X obj 235 242 throw~ ch1;
#X obj 306 241 throw~ ch2;
#X obj 377 240 throw~ ch3;
#X obj 448 241 throw~ ch4;
#X obj 519 240 throw~ ch5;
#X connect 0 0 1 0;
#X connect 0 0 2 0;
#X connect 0 0 3 0;
#X connect 0 0 4 0;
#X connect 0 0 5 0;
#X connect 0 0 6 0;
#X connect 1 0 9 0;
#X connect 2 0 10 0;
#X connect 3 0 11 0;
#X connect 4 0 12 0;
#X connect 5 0 13 0;
#X connect 6 0 14 0;
#X connect 7 0 0 0;
#X connect 8 0 1 1;
#X connect 8 0 2 1;
#X connect 8 0 3 1;
#X connect 8 0 4 1;
#X connect 8 0 5 1;
#X connect 8 0 6 1;
#X restore 305 285 pd panning1;
#X obj 168 51 r id;
#X obj 168 74 mod 2;
#X obj 168 98 sel 0 1;
#X obj 254 121 r id0;
#X obj 254 150 mod 2;
#X obj 254 175 sel 0 1;
#X obj 97 352 catch~ ch0;
#X obj 170 351 catch~ ch1;
#X obj 243 354 catch~ ch2;
#X obj 316 353 catch~ ch3;
#X obj 389 352 catch~ ch4;
#X obj 462 351 catch~ ch5;
#X obj 473 138 r scale_i;
#X obj 360 65 r id;
#X obj 361 116 mod 2;
#X obj 361 170 gate 2;
#X obj 360 89 sel -1;
#X obj 362 136 + 1;
#X floatatom 423 220 5 0 0 0 - - -;
#X connect 1 0 0 0;
#X connect 4 0 6 0;
#X connect 5 0 7 0;
#X connect 8 0 9 0;
#X connect 9 0 10 0;
#X connect 11 0 12 0;
#X connect 12 0 13 0;
#X connect 13 0 4 0;
#X connect 13 1 5 0;
#X connect 14 0 2 0;
#X connect 15 0 2 1;
#X connect 16 0 2 2;
#X connect 17 0 2 3;
#X connect 18 0 2 4;
#X connect 19 0 2 5;
#X connect 20 0 23 1;
#X connect 21 0 24 0;
#X connect 22 0 25 0;
#X connect 23 0 6 1;
#X connect 23 0 26 0;
#X connect 23 1 7 1;
#X connect 24 1 22 0;
#X connect 25 0 23 0;
