#N canvas 930 95 1027 714 10;
#N canvas 750 348 595 347 panning1 0;
#X obj 156 146 panner 0;
#X obj 217 145 panner 1;
#X obj 276 145 panner 2;
#X obj 337 144 panner 3;
#X obj 396 144 panner 4;
#X obj 457 143 panner 5;
#X obj 149 12 inlet~;
#X obj 507 18 inlet;
#X obj 164 243 throw~ ch0;
#X obj 235 242 throw~ ch1;
#X obj 306 241 throw~ ch2;
#X obj 377 240 throw~ ch3;
#X obj 448 241 throw~ ch4;
#X obj 519 240 throw~ ch5;
#X obj 156 43 *~ 1;
#X connect 0 0 8 0;
#X connect 1 0 9 0;
#X connect 2 0 10 0;
#X connect 3 0 11 0;
#X connect 4 0 12 0;
#X connect 5 0 13 0;
#X connect 6 0 14 0;
#X connect 7 0 0 1;
#X connect 7 0 1 1;
#X connect 7 0 2 1;
#X connect 7 0 3 1;
#X connect 7 0 4 1;
#X connect 7 0 5 1;
#X connect 14 0 0 0;
#X connect 14 0 1 0;
#X connect 14 0 2 0;
#X connect 14 0 3 0;
#X connect 14 0 4 0;
#X connect 14 0 5 0;
#X restore 49 546 pd panning1;
#X obj 350 610 catch~ ch0;
#X obj 423 609 catch~ ch1;
#X obj 496 612 catch~ ch2;
#X obj 569 611 catch~ ch3;
#X obj 642 610 catch~ ch4;
#X obj 715 609 catch~ ch5;
#X obj 49 513 *~;
#X obj 67 492 hsl 128 15 0 1 0 0 empty empty empty -2 -8 0 10 -262144
-1 -1 1200 1;
#X obj 115 522 hsl 128 15 -1 6 0 0 empty empty empty -2 -8 0 10 -262144
-1 -1 0 1;
#X obj 49 473 pink~;
#X floatatom 133 547 5 0 0 0 - - -;
#N canvas 43 253 1128 620 sounds 1;
#X obj 441 355 soundfiler;
#X obj 644 459 table id1s1;
#X obj 644 477 table id1s2;
#X obj 644 495 table id1s3;
#X obj 644 513 table id1s4;
#X obj 644 531 table id1s5;
#X obj 735 459 table id2s1;
#X obj 735 477 table id2s2;
#X obj 735 495 table id2s3;
#X obj 735 513 table id2s4;
#X obj 735 531 table id2s5;
#X obj 826 442 table id3s1;
#X obj 826 460 table id3s2;
#X obj 826 478 table id3s3;
#X obj 826 496 table id3s4;
#X obj 826 514 table id3s5;
#X obj 826 532 table id3s6;
#X obj 917 442 table id4s1;
#X obj 917 460 table id4s2;
#X obj 917 478 table id4s3;
#X obj 917 496 table id4s4;
#X obj 917 514 table id4s5;
#X obj 917 532 table id4s6;
#X obj 1008 442 table id5s1;
#X obj 1008 460 table id5s2;
#X obj 1008 478 table id5s3;
#X obj 1008 496 table id5s4;
#X obj 1008 514 table id5s5;
#X obj 1008 532 table id5s6;
#X obj 789 356 soundfiler;
#X obj 94 355 soundfiler;
#X obj 3 125 r loadsounds;
#X obj 350 122 r loadsounds;
#X obj 689 129 r loadsounds;
#X obj 286 37 bng 50 250 50 0 empty empty empty 17 7 0 10 -262144 -1
-1;
#X text 356 45 load all sounds!!!;
#X obj 286 92 s loadsounds;
#X msg 65 169 read -resize sounds/Thunder.wav id0s0;
#X msg 75 194 read -resize sounds/Tiainen_final.wav id0s1;
#X msg 89 219 read -resize sounds/rioagua.wav id0s2;
#X msg 99 244 read -resize sounds/Somebird.wav id0s3;
#X msg 115 269 read -resize sounds/waterdrops.wav id0s4;
#X msg 125 294 read -resize sounds/Seagulls.wav id0s5;
#X msg 412 169 read -resize sounds/hissi.wav id1s0;
#X msg 422 194 read -resize sounds/footsteps.wav id1s1;
#X msg 436 219 read -resize sounds/escalator.wav id1s2;
#X msg 446 244 read -resize sounds/Metro.wav id1s3;
#X msg 462 269 read -resize sounds/Trainpssby_final.wav id1s4;
#X msg 472 294 read -resize sounds/Pikajunahelsinkiin.wav id1s5;
#X msg 760 170 read -resize sounds/Pasosramas.wav id2s0;
#X msg 770 195 read -resize sounds/rioagua.wav id2s1;
#X msg 784 220 read -resize sounds/Somebird.wav id2s2;
#X msg 794 245 read -resize sounds/ihahaaihaha.wav id2s3;
#X msg 810 270 read -resize sounds/snowwalking.wav id2s4;
#X msg 820 295 read -resize sounds/timbrebus.wav id2s5;
#X obj 554 442 table id0s0;
#X obj 554 460 table id0s1;
#X obj 554 478 table id0s2;
#X obj 554 496 table id0s3;
#X obj 554 514 table id0s4;
#X obj 554 532 table id0s5;
#X obj 644 441 table id1s0;
#X obj 735 441 table id2s0;
#X connect 31 0 37 0;
#X connect 31 0 38 0;
#X connect 31 0 39 0;
#X connect 31 0 40 0;
#X connect 31 0 41 0;
#X connect 31 0 42 0;
#X connect 32 0 43 0;
#X connect 32 0 44 0;
#X connect 32 0 45 0;
#X connect 32 0 46 0;
#X connect 32 0 47 0;
#X connect 32 0 48 0;
#X connect 33 0 49 0;
#X connect 33 0 50 0;
#X connect 33 0 51 0;
#X connect 33 0 52 0;
#X connect 33 0 53 0;
#X connect 33 0 54 0;
#X connect 34 0 36 0;
#X connect 37 0 30 0;
#X connect 38 0 30 0;
#X connect 39 0 30 0;
#X connect 40 0 30 0;
#X connect 41 0 30 0;
#X connect 42 0 30 0;
#X connect 43 0 0 0;
#X connect 44 0 0 0;
#X connect 45 0 0 0;
#X connect 46 0 0 0;
#X connect 47 0 0 0;
#X connect 48 0 0 0;
#X connect 49 0 29 0;
#X connect 50 0 29 0;
#X connect 51 0 29 0;
#X connect 52 0 29 0;
#X connect 53 0 29 0;
#X connect 54 0 29 0;
#X restore 87 100 pd sounds;
#X obj 250 101 bng 15 250 50 0 empty empty empty 17 7 0 10 -262144
-1 -1;
#X obj 463 476 *~;
#X obj 478 329 vsl 15 128 0 0.1 0 0 empty empty empty 0 -9 0 10 -262144
-1 -1 2600 1;
#X obj 390 478 *~;
#X obj 405 331 vsl 15 128 0 0.1 0 0 empty empty empty 0 -9 0 10 -262144
-1 -1 4100 1;
#X obj 315 478 *~;
#X obj 330 331 vsl 15 128 0 0.1 0 0 empty empty empty 0 -9 0 10 -262144
-1 -1 4400 1;
#X obj 608 475 *~;
#X obj 623 328 vsl 15 128 0 0.1 0 0 empty empty empty 0 -9 0 10 -262144
-1 -1 3700 1;
#X obj 533 475 *~;
#X obj 548 328 vsl 15 128 0 0.1 0 0 empty empty empty 0 -9 0 10 -262144
-1 -1 1800 1;
#X obj 677 475 *~;
#X obj 692 328 vsl 15 128 0 0.1 0 0 empty empty empty 0 -9 0 10 -262144
-1 -1 2600 1;
#X obj 315 506 throw~ ch5;
#X obj 390 506 throw~ ch4;
#X obj 463 504 throw~ ch3;
#X obj 533 503 throw~ ch2;
#X obj 608 503 throw~ ch1;
#X obj 677 503 throw~ ch0;
#X obj 246 12 tgl 15 0 empty empty empty 17 7 0 10 -262144 -1 -1 0
1;
#X obj 242 33 metro 20000;
#X obj 87 177 tabplay~ id0s1;
#X obj 213 176 tabplay~ id0s2;
#X obj 326 177 tabplay~ id0s3;
#X obj 441 178 tabplay~ id0s4;
#X obj 554 178 tabplay~ id0s5;
#X obj 670 178 tabplay~ id0s0;
#X obj 481 12 bng 15 250 50 0 empty empty empty 17 7 0 10 -262144 -1
-1;
#X msg 484 59 read -resize sounds/backgroundnature.wav id0s6;
#X obj 796 155 table id0s6;
#X obj 637 113 soundfiler;
#X obj 495 93 tabplay~ id0s6;
#X obj 445 82 bng 15 250 50 0 empty empty empty 17 7 0 10 -262144 -1
-1;
#X obj 816 424 *~;
#X obj 795 511 *~;
#X obj 877 367 vsl 15 128 0 1 0 0 empty empty empty 0 -9 0 10 -262144
-1 -1 9100 1;
#X obj 478 666 dac~ 8 7 6 5 4 3;
#X connect 1 0 49 0;
#X connect 2 0 49 1;
#X connect 3 0 49 2;
#X connect 4 0 49 3;
#X connect 5 0 49 4;
#X connect 6 0 49 5;
#X connect 7 0 0 0;
#X connect 8 0 7 1;
#X connect 9 0 0 1;
#X connect 9 0 11 0;
#X connect 10 0 7 0;
#X connect 13 0 34 0;
#X connect 13 0 35 0;
#X connect 13 0 36 0;
#X connect 13 0 37 0;
#X connect 13 0 38 0;
#X connect 13 0 39 0;
#X connect 14 0 28 0;
#X connect 15 0 14 1;
#X connect 16 0 27 0;
#X connect 17 0 16 1;
#X connect 18 0 26 0;
#X connect 19 0 18 1;
#X connect 20 0 30 0;
#X connect 21 0 20 1;
#X connect 22 0 29 0;
#X connect 23 0 22 1;
#X connect 24 0 31 0;
#X connect 25 0 24 1;
#X connect 32 0 33 0;
#X connect 33 0 13 0;
#X connect 34 0 18 0;
#X connect 34 0 24 0;
#X connect 34 0 20 0;
#X connect 34 0 22 0;
#X connect 34 0 14 0;
#X connect 34 0 16 0;
#X connect 35 0 16 0;
#X connect 35 0 24 0;
#X connect 35 0 20 0;
#X connect 35 0 22 0;
#X connect 35 0 14 0;
#X connect 36 0 14 0;
#X connect 36 0 24 0;
#X connect 36 0 20 0;
#X connect 36 0 22 0;
#X connect 37 0 22 0;
#X connect 37 0 24 0;
#X connect 37 0 20 0;
#X connect 38 0 20 0;
#X connect 38 0 24 0;
#X connect 39 0 24 0;
#X connect 40 0 41 0;
#X connect 41 0 43 0;
#X connect 44 0 14 0;
#X connect 44 0 22 0;
#X connect 44 0 20 0;
#X connect 44 0 24 0;
#X connect 44 0 18 0;
#X connect 44 0 16 0;
#X connect 44 0 46 0;
#X connect 45 0 44 0;
#X connect 46 0 47 0;
#X connect 47 0 49 0;
#X connect 47 0 49 1;
#X connect 47 0 49 2;
#X connect 48 0 47 1;
