#N canvas 400 320 1532 770 10;
#X obj 68 446 soundp;
#X obj 741 544 throw~ ch4;
#X obj 516 541 throw~ ch3;
#X obj 315 539 throw~ ch2;
#X obj 174 537 throw~ ch1;
#X obj 68 536 throw~ ch0;
#X obj 1026 547 throw~ ch5;
#X obj 68 508 *~ 0.1;
#X obj 174 509 *~ 0.05;
#X obj 315 510 *~ 0.033;
#X obj 516 513 *~ 0.025;
#X obj 741 516 *~ 0.02;
#X obj 1026 519 *~ 0.017;
#X obj 1285 334 r scale;
#X obj 1197 418 gate 6;
#X obj 1252 394 counter 1 6;
#X obj 1252 418 gate 6;
#X text 41 21 Always send scale before id number;
#X obj 1203 368 t b f;
#X obj 873 321 r id;
#X obj 955 341 r scale;
#X obj 873 368 t b f;
#X obj 867 418 gate 5;
#X obj 922 418 gate 5;
#X obj 922 394 counter 1 5;
#X obj 603 325 r id;
#X obj 685 339 r scale;
#X obj 603 366 t b f;
#X obj 597 418 gate 4;
#X obj 652 418 gate 4;
#X obj 652 393 counter 1 4;
#X obj 357 341 r id;
#X obj 439 340 r scale;
#X obj 357 367 t b f;
#X obj 406 418 gate 3;
#X obj 351 418 gate 3;
#X obj 406 393 counter 1 3;
#X obj 171 341 r id;
#X obj 253 340 r scale;
#X obj 171 366 t b f;
#X obj 174 418 gate 2;
#X obj 220 418 gate 2;
#X obj 84 334 r id;
#X obj 101 355 r scale;
#X obj 741 402 sel 4;
#X obj 1026 402 sel 5;
#X obj 516 399 sel 3;
#X obj 315 398 sel 2;
#X obj 68 413 sel 0;
#X obj 173 393 sel 1;
#X obj 692 163 s id;
#X obj 757 163 s scale;
#X obj 360 620 catch~ ch0;
#X obj 433 619 catch~ ch1;
#X obj 506 622 catch~ ch2;
#X obj 579 621 catch~ ch3;
#X obj 652 620 catch~ ch4;
#X obj 725 619 catch~ ch5;
#X obj 488 676 dac~ 8 7 6 5 4 3;
#N canvas 303 246 1128 620 sounds 0;
#X obj 441 355 soundfiler;
#X obj 644 459 table id1s1;
#X obj 644 477 table id1s2;
#X obj 644 495 table id1s3;
#X obj 644 513 table id1s4;
#X obj 644 531 table id1s5;
#X obj 735 459 table id2s1;
#X obj 735 477 table id2s2;
#X obj 735 495 table id2s3;
#X obj 735 513 table id2s4;
#X obj 735 531 table id2s5;
#X obj 826 442 table id3s1;
#X obj 826 460 table id3s2;
#X obj 826 478 table id3s3;
#X obj 826 496 table id3s4;
#X obj 826 514 table id3s5;
#X obj 826 532 table id3s6;
#X obj 917 442 table id4s1;
#X obj 917 460 table id4s2;
#X obj 917 478 table id4s3;
#X obj 917 496 table id4s4;
#X obj 917 514 table id4s5;
#X obj 917 532 table id4s6;
#X obj 1008 442 table id5s1;
#X obj 1008 460 table id5s2;
#X obj 1008 478 table id5s3;
#X obj 1008 496 table id5s4;
#X obj 1008 514 table id5s5;
#X obj 1008 532 table id5s6;
#X obj 789 356 soundfiler;
#X obj 94 355 soundfiler;
#X obj 3 125 r loadsounds;
#X obj 350 122 r loadsounds;
#X obj 689 129 r loadsounds;
#X obj 286 37 bng 50 250 50 0 empty empty empty 17 7 0 10 -262144 -1
-1;
#X text 356 45 load all sounds!!!;
#X obj 286 92 s loadsounds;
#X msg 65 169 read -resize sounds/Thunder.wav id0s0;
#X msg 75 194 read -resize sounds/Tiainen_final.wav id0s1;
#X msg 89 219 read -resize sounds/rioagua.wav id0s2;
#X msg 99 244 read -resize sounds/Somebird.wav id0s3;
#X msg 115 269 read -resize sounds/waterdrops.wav id0s4;
#X msg 125 294 read -resize sounds/Seagulls.wav id0s5;
#X msg 412 169 read -resize sounds/hissi.wav id1s0;
#X msg 422 194 read -resize sounds/footsteps.wav id1s1;
#X msg 436 219 read -resize sounds/escalator.wav id1s2;
#X msg 446 244 read -resize sounds/Metro.wav id1s3;
#X msg 462 269 read -resize sounds/Trainpssby_final.wav id1s4;
#X msg 472 294 read -resize sounds/Pikajunahelsinkiin.wav id1s5;
#X msg 760 170 read -resize sounds/Pasosramas.wav id2s0;
#X msg 770 195 read -resize sounds/rioagua.wav id2s1;
#X msg 784 220 read -resize sounds/Somebird.wav id2s2;
#X msg 794 245 read -resize sounds/ihahaaihaha.wav id2s3;
#X msg 810 270 read -resize sounds/snowwalking.wav id2s4;
#X msg 820 295 read -resize sounds/timbrebus.wav id2s5;
#X obj 554 442 table id0s0;
#X obj 554 460 table id0s1;
#X obj 554 478 table id0s2;
#X obj 554 496 table id0s3;
#X obj 554 514 table id0s4;
#X obj 554 532 table id0s5;
#X obj 644 441 table id1s0;
#X obj 735 441 table id2s0;
#X connect 31 0 37 0;
#X connect 31 0 38 0;
#X connect 31 0 39 0;
#X connect 31 0 40 0;
#X connect 31 0 41 0;
#X connect 31 0 42 0;
#X connect 32 0 43 0;
#X connect 32 0 44 0;
#X connect 32 0 45 0;
#X connect 32 0 46 0;
#X connect 32 0 47 0;
#X connect 32 0 48 0;
#X connect 33 0 49 0;
#X connect 33 0 50 0;
#X connect 33 0 51 0;
#X connect 33 0 52 0;
#X connect 33 0 53 0;
#X connect 33 0 54 0;
#X connect 34 0 36 0;
#X connect 37 0 30 0;
#X connect 38 0 30 0;
#X connect 39 0 30 0;
#X connect 40 0 30 0;
#X connect 41 0 30 0;
#X connect 42 0 30 0;
#X connect 43 0 0 0;
#X connect 44 0 0 0;
#X connect 45 0 0 0;
#X connect 46 0 0 0;
#X connect 47 0 0 0;
#X connect 48 0 0 0;
#X connect 49 0 29 0;
#X connect 50 0 29 0;
#X connect 51 0 29 0;
#X connect 52 0 29 0;
#X connect 53 0 29 0;
#X connect 54 0 29 0;
#X restore 97 110 pd sounds;
#X obj 220 392 counter 1 2;
#X obj 720 120 unpack f f;
#X msg 696 55 0 0;
#X msg 736 57 0 1;
#X msg 775 55 0 2;
#X obj 174 447 soundp;
#X obj 220 447 soundp;
#X obj 315 448 soundp;
#X obj 361 448 soundp;
#X obj 406 448 soundp;
#X obj 516 448 soundp;
#X obj 562 448 soundp;
#X obj 607 448 soundp;
#X obj 652 448 soundp;
#X obj 741 449 soundp;
#X obj 787 449 soundp;
#X obj 832 449 soundp;
#X obj 877 449 soundp;
#X obj 922 449 soundp;
#X obj 1026 449 soundp;
#X obj 1072 449 soundp;
#X obj 1117 449 soundp;
#X obj 1161 449 soundp;
#X obj 1207 449 soundp;
#X obj 1252 449 soundp;
#X msg 811 56 0 3;
#X msg 850 57 0 4;
#X msg 893 58 0 5;
#X floatatom 978 16 5 0 0 0 - - -;
#X floatatom 1237 5 5 0 0 0 - - -;
#N canvas 213 160 581 432 listhandling 0;
#X obj 158 106 list;
#X obj 107 183 list-find;
#X obj 107 212 zl group 6;
#X obj 80 153 t b a;
#X obj 349 111 list;
#X obj 298 188 list-find;
#X obj 298 217 zl group 6;
#X obj 271 158 t b a;
#X obj 210 228 zl sect;
#X obj 120 299 list-delete 0 1;
#X msg 204 89 5;
#X obj 158 134 list split 7;
#X obj 142 74 t f f b;
#X obj 245 300 list-delete 0 1;
#X obj 349 139 list split 7;
#X obj 111 258 t l b;
#X obj 280 254 l;
#X obj 189 249 list-nth 0;
#X obj 318 85 t f f;
#X obj 189 273 + 0;
#X obj 133 30 inlet;
#X obj 318 36 inlet;
#X text 354 35 scale;
#X text 171 29 id;
#X connect 0 0 11 0;
#X connect 1 0 2 0;
#X connect 2 0 8 0;
#X connect 3 0 2 0;
#X connect 3 1 1 0;
#X connect 4 0 14 0;
#X connect 5 0 6 0;
#X connect 6 0 8 1;
#X connect 7 0 6 0;
#X connect 7 1 5 0;
#X connect 8 0 17 0;
#X connect 9 0 0 1;
#X connect 10 0 9 1;
#X connect 10 0 13 1;
#X connect 11 0 1 1;
#X connect 11 0 15 0;
#X connect 11 2 1 1;
#X connect 12 0 0 0;
#X connect 12 1 10 0;
#X connect 12 1 3 0;
#X connect 13 0 4 1;
#X connect 14 0 5 1;
#X connect 14 0 16 1;
#X connect 14 2 5 1;
#X connect 15 0 9 0;
#X connect 15 1 16 0;
#X connect 16 0 13 0;
#X connect 17 0 19 0;
#X connect 18 0 4 0;
#X connect 18 1 7 0;
#X connect 19 0 13 1;
#X connect 19 0 9 1;
#X connect 20 0 12 0;
#X connect 21 0 18 0;
#X restore 899 167 pd listhandling;
#X obj 899 142 r id;
#X obj 986 145 r scale;
#X connect 0 0 7 0;
#X connect 7 0 5 0;
#X connect 8 0 4 0;
#X connect 9 0 3 0;
#X connect 10 0 2 0;
#X connect 11 0 1 0;
#X connect 12 0 6 0;
#X connect 13 0 16 1;
#X connect 13 0 45 0;
#X connect 14 0 79 1;
#X connect 14 1 80 1;
#X connect 14 2 81 1;
#X connect 14 3 82 1;
#X connect 14 4 83 1;
#X connect 14 5 84 1;
#X connect 15 0 14 0;
#X connect 15 0 16 0;
#X connect 16 0 79 2;
#X connect 16 1 80 2;
#X connect 16 2 81 2;
#X connect 16 3 82 2;
#X connect 16 4 83 2;
#X connect 16 5 84 2;
#X connect 18 0 15 0;
#X connect 18 1 14 1;
#X connect 19 0 21 0;
#X connect 20 0 23 1;
#X connect 20 0 44 0;
#X connect 21 0 24 0;
#X connect 21 1 22 1;
#X connect 22 0 74 1;
#X connect 22 1 75 1;
#X connect 22 2 76 1;
#X connect 22 3 77 1;
#X connect 22 4 78 1;
#X connect 23 0 74 2;
#X connect 23 1 75 2;
#X connect 23 2 76 2;
#X connect 23 3 77 2;
#X connect 23 4 78 2;
#X connect 24 0 22 0;
#X connect 24 0 23 0;
#X connect 25 0 27 0;
#X connect 26 0 29 1;
#X connect 26 0 46 0;
#X connect 27 0 30 0;
#X connect 27 1 28 1;
#X connect 28 0 70 1;
#X connect 28 1 71 1;
#X connect 28 2 72 1;
#X connect 28 3 73 1;
#X connect 29 0 70 2;
#X connect 29 1 71 2;
#X connect 29 2 72 2;
#X connect 29 3 73 2;
#X connect 30 0 28 0;
#X connect 30 0 29 0;
#X connect 31 0 33 0;
#X connect 32 0 34 1;
#X connect 32 0 47 0;
#X connect 33 0 36 0;
#X connect 33 1 35 1;
#X connect 34 0 67 2;
#X connect 34 1 68 2;
#X connect 34 2 69 2;
#X connect 35 0 67 1;
#X connect 35 1 68 1;
#X connect 35 2 69 1;
#X connect 36 0 34 0;
#X connect 36 0 35 0;
#X connect 37 0 39 0;
#X connect 38 0 41 1;
#X connect 38 0 49 0;
#X connect 39 0 60 0;
#X connect 39 1 40 1;
#X connect 40 0 65 1;
#X connect 40 1 66 1;
#X connect 41 0 65 2;
#X connect 41 1 66 2;
#X connect 42 0 0 1;
#X connect 43 0 0 2;
#X connect 43 0 48 0;
#X connect 44 0 74 0;
#X connect 44 0 75 0;
#X connect 44 0 76 0;
#X connect 44 0 77 0;
#X connect 44 0 78 0;
#X connect 45 0 79 0;
#X connect 45 0 80 0;
#X connect 45 0 81 0;
#X connect 45 0 82 0;
#X connect 45 0 83 0;
#X connect 45 0 84 0;
#X connect 46 0 70 0;
#X connect 46 0 71 0;
#X connect 46 0 72 0;
#X connect 46 0 73 0;
#X connect 47 0 67 0;
#X connect 47 0 68 0;
#X connect 47 0 69 0;
#X connect 48 0 0 0;
#X connect 49 0 65 0;
#X connect 49 0 66 0;
#X connect 52 0 58 0;
#X connect 53 0 58 1;
#X connect 54 0 58 2;
#X connect 55 0 58 3;
#X connect 56 0 58 4;
#X connect 57 0 58 5;
#X connect 60 0 41 0;
#X connect 60 0 40 0;
#X connect 61 0 50 0;
#X connect 61 1 51 0;
#X connect 62 0 61 0;
#X connect 63 0 61 0;
#X connect 64 0 61 0;
#X connect 65 0 8 0;
#X connect 66 0 8 0;
#X connect 67 0 9 0;
#X connect 68 0 9 0;
#X connect 69 0 9 0;
#X connect 70 0 10 0;
#X connect 71 0 10 0;
#X connect 72 0 10 0;
#X connect 73 0 10 0;
#X connect 74 0 11 0;
#X connect 75 0 11 0;
#X connect 76 0 11 0;
#X connect 77 0 11 0;
#X connect 78 0 11 0;
#X connect 79 0 12 0;
#X connect 80 0 12 0;
#X connect 81 0 12 0;
#X connect 82 0 12 0;
#X connect 83 0 12 0;
#X connect 84 0 12 0;
#X connect 85 0 61 0;
#X connect 86 0 61 0;
#X connect 87 0 61 0;
#X connect 91 0 90 0;
#X connect 92 0 90 1;
