#N canvas 303 193 1630 836 10;
#X obj 741 544 throw~ ch4;
#X obj 516 541 throw~ ch3;
#X obj 315 539 throw~ ch2;
#X obj 174 537 throw~ ch1;
#X obj 68 536 throw~ ch0;
#X obj 1026 547 throw~ ch5;
#X obj 68 508 *~ 0.1;
#X obj 174 509 *~ 0.05;
#X obj 315 510 *~ 0.033;
#X obj 516 513 *~ 0.025;
#X text 41 21 Always send scale before id number;
#X obj 692 163 s id;
#X obj 757 163 s scale;
#X obj 360 620 catch~ ch0;
#X obj 433 619 catch~ ch1;
#X obj 506 622 catch~ ch2;
#X obj 579 621 catch~ ch3;
#X obj 652 620 catch~ ch4;
#X obj 725 619 catch~ ch5;
#X obj 488 676 dac~ 8 7 6 5 4 3;
#N canvas 505 242 1128 620 sounds 0;
#X obj 441 355 soundfiler;
#X obj 644 459 table id1s1;
#X obj 644 477 table id1s2;
#X obj 644 495 table id1s3;
#X obj 644 513 table id1s4;
#X obj 644 531 table id1s5;
#X obj 735 459 table id2s1;
#X obj 735 477 table id2s2;
#X obj 735 495 table id2s3;
#X obj 735 513 table id2s4;
#X obj 735 531 table id2s5;
#X obj 826 442 table id3s1;
#X obj 826 460 table id3s2;
#X obj 826 478 table id3s3;
#X obj 826 496 table id3s4;
#X obj 826 514 table id3s5;
#X obj 826 532 table id3s6;
#X obj 917 442 table id4s1;
#X obj 917 460 table id4s2;
#X obj 917 478 table id4s3;
#X obj 917 496 table id4s4;
#X obj 917 514 table id4s5;
#X obj 917 532 table id4s6;
#X obj 1008 442 table id5s1;
#X obj 1008 460 table id5s2;
#X obj 1008 478 table id5s3;
#X obj 1008 496 table id5s4;
#X obj 1008 514 table id5s5;
#X obj 1008 532 table id5s6;
#X obj 789 356 soundfiler;
#X obj 94 355 soundfiler;
#X obj 3 125 r loadsounds;
#X obj 350 122 r loadsounds;
#X obj 689 129 r loadsounds;
#X obj 286 37 bng 50 250 50 0 empty empty empty 17 7 0 10 -262144 -1
-1;
#X text 356 45 load all sounds!!!;
#X obj 286 92 s loadsounds;
#X msg 89 219 read -resize sounds/rioagua.wav id0s2;
#X msg 99 244 read -resize sounds/Somebird.wav id0s3;
#X msg 125 294 read -resize sounds/Seagulls.wav id0s5;
#X msg 412 169 read -resize sounds/hissi.wav id1s0;
#X msg 422 194 read -resize sounds/footsteps.wav id1s1;
#X msg 436 219 read -resize sounds/escalator.wav id1s2;
#X msg 446 244 read -resize sounds/Metro.wav id1s3;
#X msg 462 269 read -resize sounds/Trainpssby_final.wav id1s4;
#X msg 472 294 read -resize sounds/Pikajunahelsinkiin.wav id1s5;
#X msg 760 170 read -resize sounds/Pasosramas.wav id2s0;
#X msg 794 245 read -resize sounds/ihahaaihaha.wav id2s3;
#X msg 810 270 read -resize sounds/snowwalking.wav id2s4;
#X msg 820 295 read -resize sounds/timbrebus.wav id2s5;
#X obj 554 442 table id0s0;
#X obj 554 460 table id0s1;
#X obj 554 478 table id0s2;
#X obj 554 496 table id0s3;
#X obj 554 514 table id0s4;
#X obj 554 532 table id0s5;
#X obj 644 441 table id1s0;
#X obj 735 441 table id2s0;
#X msg 65 169 read -resize sounds/waterdrops.wav id0s0;
#X msg 115 269 read -resize sounds/Thunder.wav id0s4;
#X msg 784 220 read -resize sounds/ankat.wav id2s2;
#X msg 770 195 read -resize sounds/Dogs.wav id2s1;
#X msg 75 194 read -resize sounds/Tiainen_low.wav id0s1;
#X obj 554 558 table id0bg;
#X obj 644 558 table id1bg;
#X msg 472 328 read -resize sounds/backgroundcity.wav id1bg;
#X obj 735 558 table id2bg;
#X msg 132 326 read -resize sounds/Naturetausta.wav id0bg;
#X msg 834 330 read -resize sounds/Raintausta.wav id2bg;
#X connect 31 0 58 0;
#X connect 31 0 62 0;
#X connect 31 0 37 0;
#X connect 31 0 38 0;
#X connect 31 0 59 0;
#X connect 31 0 39 0;
#X connect 31 0 67 0;
#X connect 32 0 40 0;
#X connect 32 0 41 0;
#X connect 32 0 42 0;
#X connect 32 0 43 0;
#X connect 32 0 44 0;
#X connect 32 0 45 0;
#X connect 32 0 65 0;
#X connect 33 0 46 0;
#X connect 33 0 61 0;
#X connect 33 0 60 0;
#X connect 33 0 47 0;
#X connect 33 0 48 0;
#X connect 33 0 49 0;
#X connect 33 0 68 0;
#X connect 34 0 36 0;
#X connect 37 0 30 0;
#X connect 38 0 30 0;
#X connect 39 0 30 0;
#X connect 40 0 0 0;
#X connect 41 0 0 0;
#X connect 42 0 0 0;
#X connect 43 0 0 0;
#X connect 44 0 0 0;
#X connect 45 0 0 0;
#X connect 46 0 29 0;
#X connect 47 0 29 0;
#X connect 48 0 29 0;
#X connect 49 0 29 0;
#X connect 58 0 30 0;
#X connect 59 0 30 0;
#X connect 60 0 29 0;
#X connect 61 0 29 0;
#X connect 62 0 30 0;
#X connect 65 0 0 0;
#X connect 67 0 30 0;
#X connect 68 0 29 0;
#X restore 97 110 pd sounds;
#X obj 720 120 unpack f f;
#X msg 696 55 0 0;
#X msg 736 57 0 1;
#X msg 775 55 0 2;
#X obj 174 447 soundp;
#X msg 811 56 0 3;
#X msg 850 57 0 4;
#X msg 893 58 0 5;
#N canvas 231 387 726 667 listhandling 1;
#X obj 107 183 list-find;
#X obj 345 148 list-find;
#X obj 325 118 t b a;
#X obj 208 252 zl sect;
#X obj 118 369 list-delete 0 1;
#X obj 243 370 list-delete 0 1;
#X obj 109 328 t l b;
#X obj 187 273 list-nth 0;
#X obj 133 30 inlet;
#X obj 318 36 inlet;
#X text 354 35 scale;
#X text 171 29 id;
#X msg 219 212 5;
#X obj 187 304 min 5;
#X obj 345 177 zl group 10;
#X obj 107 212 zl group 10;
#X obj 117 61 t f b;
#X obj 245 495 outlet;
#X obj 187 343 + 0;
#X obj 260 326 list;
#X obj 113 457 list prepend;
#X obj 113 413 list split 5;
#X obj 245 415 list split 5;
#X obj 113 499 outlet;
#X obj 245 455 list prepend;
#X obj 10 248 list;
#X obj 382 254 list;
#X obj 80 153 t b b b a;
#X msg 480 102 0 1 2 3 4 5;
#X connect 0 0 15 0;
#X connect 1 0 14 0;
#X connect 2 0 14 0;
#X connect 2 1 1 0;
#X connect 3 0 7 0;
#X connect 4 0 21 0;
#X connect 5 0 22 0;
#X connect 6 1 19 0;
#X connect 7 0 13 0;
#X connect 8 0 16 0;
#X connect 9 0 2 0;
#X connect 9 0 24 1;
#X connect 12 0 18 0;
#X connect 13 0 18 0;
#X connect 14 0 3 1;
#X connect 15 0 3 0;
#X connect 16 0 20 1;
#X connect 16 0 27 0;
#X connect 16 1 12 0;
#X connect 18 0 5 1;
#X connect 18 0 4 1;
#X connect 20 0 23 0;
#X connect 20 0 0 1;
#X connect 20 0 25 1;
#X connect 21 0 20 0;
#X connect 21 2 20 0;
#X connect 22 0 24 0;
#X connect 22 2 24 0;
#X connect 24 0 1 1;
#X connect 24 0 17 0;
#X connect 24 0 26 1;
#X connect 25 0 4 0;
#X connect 26 0 5 0;
#X connect 27 0 25 0;
#X connect 27 1 26 0;
#X connect 27 2 15 0;
#X connect 27 3 0 0;
#X connect 28 0 26 1;
#X connect 28 0 25 1;
#X restore 899 167 pd listhandling;
#X obj 899 142 r id;
#X obj 986 145 r scale;
#X obj 862 341 list split 5;
#X obj 862 369 unpack f f f f f;
#X obj 986 189 s scalelist;
#X obj 899 189 s idlist;
#X obj 862 317 r scalelist;
#X obj 757 341 list split 5;
#X obj 757 369 unpack f f f f f;
#X obj 757 317 r idlist;
#X obj 610 327 r scalelist;
#X obj 505 327 r idlist;
#X obj 610 351 list split 4;
#X obj 505 351 list split 4;
#X obj 505 379 unpack f f f f;
#X obj 610 379 unpack f f f f;
#X obj 400 329 r scalelist;
#X obj 295 329 r idlist;
#X obj 295 353 list split 3;
#X obj 400 353 list split 3;
#X obj 295 381 unpack f f f;
#X obj 400 381 unpack f f f;
#X obj 191 321 r scalelist;
#X obj 86 321 r idlist;
#X obj 191 345 list split 2;
#X obj 86 345 list split 2;
#X obj 191 373 unpack f f;
#X obj 86 373 unpack f f;
#X obj 86 415 r id;
#X obj 116 426 r scale;
#X obj 72 148 r scale;
#X obj 72 207 sel 0 1 2 3 4 5;
#X obj 1166 320 r scalelist;
#X obj 1050 320 r idlist;
#X obj 1166 344 list split 6;
#X obj 1050 344 list split 6;
#X obj 1050 372 unpack f f f f f f;
#X obj 1166 372 unpack f f f f f f;
#X obj 56 241 s play0;
#X obj 105 241 s play1;
#X obj 154 241 s play2;
#X obj 203 241 s play3;
#X obj 252 241 s play4;
#X obj 301 241 s play5;
#X obj 29 405 r play0;
#X obj 180 406 r play1;
#X obj 320 410 r play2;
#X obj 503 412 r play3;
#X obj 739 404 r play4;
#X obj 1013 409 r play5;
#X msg 470 36 1 0;
#X msg 507 36 1 1;
#X obj 68 446 soundp;
#X obj 220 447 soundp;
#X obj 315 448 soundp;
#X obj 361 448 soundp;
#X obj 406 448 soundp;
#X obj 516 448 soundp;
#X obj 562 448 soundp;
#X obj 607 448 soundp;
#X obj 652 448 soundp;
#X obj 741 449 soundp;
#X obj 787 449 soundp;
#X obj 832 449 soundp;
#X obj 877 449 soundp;
#X obj 922 449 soundp;
#X obj 1026 449 soundp;
#X obj 1072 449 soundp;
#X obj 1117 449 soundp;
#X obj 1161 449 soundp;
#X obj 1207 449 soundp;
#X obj 1252 449 soundp;
#X obj 103 179 pipe 10;
#X obj 741 516 *~ 0.02;
#X obj 1026 519 *~ 0.017;
#X msg 542 36 1 2;
#X msg 579 36 1 3;
#X msg 970 54 2 2;
#X msg 1002 54 2 1;
#X msg 1065 65 2 3;
#X msg 1137 63 2 5;
#X msg 1195 67 2 4;
#X msg 1319 65 2 0;
#X msg 1255 68 2 5;
#N canvas 738 48 457 630 backgroundplayer 0;
#X obj 201 45 r idlist;
#X obj 58 353 tabplay~ id0bg;
#X obj 142 180 list-find 0;
#X obj 220 180 list-find 1;
#X obj 296 180 list-find 2;
#X msg 142 157 0;
#X msg 220 157 1;
#X msg 296 159 2;
#X obj 201 79 t b b b l;
#X obj 21 403 line~;
#X obj 58 326 bng 15 250 50 0 empty empty empty 17 7 0 10 -262144 -1
-1;
#X msg 21 381 \$1 500;
#X obj 58 447 *~;
#X obj 297 547 throw~ ch4;
#X obj 229 547 throw~ ch3;
#X obj 161 547 throw~ ch2;
#X obj 90 547 throw~ ch1;
#X obj 20 547 throw~ ch0;
#X obj 364 547 throw~ ch5;
#X obj 21 355 == 0;
#X obj 163 401 line~;
#X obj 200 324 bng 15 250 50 0 empty empty empty 17 7 0 10 -262144
-1 -1;
#X msg 163 379 \$1 500;
#X obj 200 445 *~;
#X obj 301 399 line~;
#X obj 338 324 bng 15 250 50 0 empty empty empty 17 7 0 10 -262144
-1 -1;
#X msg 301 377 \$1 500;
#X obj 338 443 *~;
#X obj 163 353 == 1;
#X obj 301 351 == 2;
#X obj 200 351 tabplay~ id1bg;
#X obj 338 349 tabplay~ id2bg;
#X floatatom 254 285 5 0 0 0 - - -;
#X obj 132 494 *~ 0.1;
#X obj 21 208 expr if($f1 >= $f2 && $f1 >= $f3 \, 0 \, if($f2 >= $f3
\, 1 \, 2));
#X connect 0 0 8 0;
#X connect 1 0 12 0;
#X connect 1 1 10 0;
#X connect 2 1 34 0;
#X connect 3 1 34 1;
#X connect 4 1 34 2;
#X connect 5 0 2 0;
#X connect 6 0 3 0;
#X connect 7 0 4 0;
#X connect 8 0 5 0;
#X connect 8 1 6 0;
#X connect 8 2 7 0;
#X connect 8 3 4 1;
#X connect 8 3 3 1;
#X connect 8 3 2 1;
#X connect 9 0 12 1;
#X connect 10 0 1 0;
#X connect 11 0 9 0;
#X connect 12 0 33 0;
#X connect 19 0 11 0;
#X connect 20 0 23 1;
#X connect 21 0 30 0;
#X connect 22 0 20 0;
#X connect 23 0 33 0;
#X connect 24 0 27 1;
#X connect 25 0 31 0;
#X connect 26 0 24 0;
#X connect 27 0 33 0;
#X connect 28 0 22 0;
#X connect 29 0 26 0;
#X connect 30 0 23 0;
#X connect 30 1 21 0;
#X connect 31 0 27 0;
#X connect 31 1 25 0;
#X connect 33 0 17 0;
#X connect 33 0 16 0;
#X connect 33 0 15 0;
#X connect 33 0 14 0;
#X connect 33 0 13 0;
#X connect 33 0 18 0;
#X connect 34 0 19 0;
#X connect 34 0 28 0;
#X connect 34 0 29 0;
#X connect 34 0 32 0;
#X restore 867 652 pd backgroundplayer;
#X msg 624 40 1 5;
#X connect 6 0 4 0;
#X connect 7 0 3 0;
#X connect 8 0 2 0;
#X connect 9 0 1 0;
#X connect 13 0 19 0;
#X connect 14 0 19 1;
#X connect 15 0 19 2;
#X connect 16 0 19 3;
#X connect 17 0 19 4;
#X connect 18 0 19 5;
#X connect 21 0 11 0;
#X connect 21 1 12 0;
#X connect 22 0 21 0;
#X connect 23 0 21 0;
#X connect 24 0 21 0;
#X connect 25 0 7 0;
#X connect 26 0 21 0;
#X connect 27 0 21 0;
#X connect 28 0 21 0;
#X connect 29 0 35 0;
#X connect 29 1 34 0;
#X connect 30 0 29 0;
#X connect 31 0 29 1;
#X connect 32 0 33 0;
#X connect 32 2 33 0;
#X connect 33 0 91 2;
#X connect 33 1 92 2;
#X connect 33 2 93 2;
#X connect 33 3 94 2;
#X connect 33 4 95 2;
#X connect 36 0 32 0;
#X connect 37 0 38 0;
#X connect 37 2 38 0;
#X connect 38 0 91 1;
#X connect 38 1 92 1;
#X connect 38 2 93 1;
#X connect 38 3 94 1;
#X connect 38 4 95 1;
#X connect 39 0 37 0;
#X connect 40 0 42 0;
#X connect 41 0 43 0;
#X connect 42 0 45 0;
#X connect 42 2 45 0;
#X connect 43 0 44 0;
#X connect 43 2 44 0;
#X connect 44 0 87 1;
#X connect 44 1 88 1;
#X connect 44 2 89 1;
#X connect 44 3 90 1;
#X connect 45 0 87 2;
#X connect 45 1 88 2;
#X connect 45 2 89 2;
#X connect 45 3 90 2;
#X connect 46 0 49 0;
#X connect 47 0 48 0;
#X connect 48 0 50 0;
#X connect 48 2 50 0;
#X connect 49 0 51 0;
#X connect 49 2 51 0;
#X connect 50 0 84 1;
#X connect 50 1 85 1;
#X connect 50 2 86 1;
#X connect 51 0 84 2;
#X connect 51 1 85 2;
#X connect 51 2 86 2;
#X connect 52 0 54 0;
#X connect 53 0 55 0;
#X connect 54 0 56 0;
#X connect 54 2 56 0;
#X connect 55 0 57 0;
#X connect 55 2 57 0;
#X connect 56 0 25 2;
#X connect 56 1 83 2;
#X connect 57 0 25 1;
#X connect 57 1 83 1;
#X connect 58 0 82 1;
#X connect 59 0 82 2;
#X connect 60 0 102 0;
#X connect 61 0 68 0;
#X connect 61 1 69 0;
#X connect 61 2 70 0;
#X connect 61 3 71 0;
#X connect 61 4 72 0;
#X connect 61 5 73 0;
#X connect 62 0 64 0;
#X connect 63 0 65 0;
#X connect 64 0 67 0;
#X connect 64 2 67 0;
#X connect 65 0 66 0;
#X connect 65 2 66 0;
#X connect 66 0 96 1;
#X connect 66 1 97 1;
#X connect 66 2 98 1;
#X connect 66 3 99 1;
#X connect 66 4 100 1;
#X connect 66 5 101 1;
#X connect 67 0 96 2;
#X connect 67 1 97 2;
#X connect 67 2 98 2;
#X connect 67 3 99 2;
#X connect 67 4 100 2;
#X connect 67 5 101 2;
#X connect 74 0 82 0;
#X connect 75 0 25 0;
#X connect 75 0 83 0;
#X connect 76 0 84 0;
#X connect 76 0 85 0;
#X connect 76 0 86 0;
#X connect 77 0 87 0;
#X connect 77 0 88 0;
#X connect 77 0 89 0;
#X connect 77 0 90 0;
#X connect 78 0 91 0;
#X connect 78 0 92 0;
#X connect 78 0 93 0;
#X connect 78 0 94 0;
#X connect 78 0 95 0;
#X connect 79 0 96 0;
#X connect 79 0 97 0;
#X connect 79 0 98 0;
#X connect 79 0 99 0;
#X connect 79 0 100 0;
#X connect 79 0 101 0;
#X connect 80 0 21 0;
#X connect 81 0 21 0;
#X connect 82 0 6 0;
#X connect 83 0 7 0;
#X connect 84 0 8 0;
#X connect 85 0 8 0;
#X connect 86 0 8 0;
#X connect 87 0 9 0;
#X connect 88 0 9 0;
#X connect 89 0 9 0;
#X connect 90 0 9 0;
#X connect 91 0 103 0;
#X connect 92 0 103 0;
#X connect 93 0 103 0;
#X connect 94 0 103 0;
#X connect 95 0 103 0;
#X connect 96 0 104 0;
#X connect 97 0 104 0;
#X connect 98 0 104 0;
#X connect 99 0 104 0;
#X connect 100 0 104 0;
#X connect 101 0 104 0;
#X connect 102 0 61 0;
#X connect 103 0 0 0;
#X connect 104 0 5 0;
#X connect 105 0 21 0;
#X connect 106 0 21 0;
#X connect 107 0 21 0;
#X connect 108 0 21 0;
#X connect 109 0 21 0;
#X connect 110 0 21 0;
#X connect 111 0 21 0;
#X connect 112 0 21 0;
#X connect 113 0 21 0;
#X connect 115 0 21 0;
