#N canvas 304 138 1359 748 10;
#X declare -lib mrpeach;
#X obj 72 16 import mrpeach;
#X obj 113 109 route /scales;
#X obj 113 83 unpackOSC;
#X obj 113 147 unpack f f f f f f;
#X obj 907 357 packOSC;
#X obj 907 432 udpsend;
#X msg 907 330 send /changeLight \$1 \$2 \$3 \$4;
#X msg 947 406 disconnect;
#X obj 14 244 change;
#X obj 94 244 change;
#X obj 168 244 change;
#X obj 248 244 change;
#X obj 316 244 change;
#X obj 395 244 change;
#N canvas 728 153 208 306 colors 0;
#X msg 123 97 255 0 0;
#X msg 123 121 0 255 0;
#X msg 123 145 0 0 255;
#X msg 123 193 127 127 0;
#X msg 123 217 127 0 127;
#X msg 123 169 0 127 127;
#X obj 22 14 inlet;
#X obj 20 264 outlet;
#X msg 123 72 0 0 0;
#X obj 22 37 sel 0 1 2 3 4 5 -1;
#X connect 0 0 7 0;
#X connect 1 0 7 0;
#X connect 2 0 7 0;
#X connect 3 0 7 0;
#X connect 4 0 7 0;
#X connect 5 0 7 0;
#X connect 6 0 9 0;
#X connect 8 0 7 0;
#X connect 9 0 4 0;
#X connect 9 1 3 0;
#X connect 9 2 5 0;
#X connect 9 3 2 0;
#X connect 9 4 1 0;
#X connect 9 5 0 0;
#X connect 9 6 8 0;
#X restore 715 89 pd colors;
#X floatatom 658 89 5 0 0 0 - - -;
#X obj 703 141 pack f f f f;
#X obj 715 111 unpack f f f;
#X obj 94 284 s id1;
#X obj 168 283 s id2;
#X obj 248 284 s id3;
#X obj 316 283 s id4;
#X obj 395 284 s id5;
#X obj 14 284 s id0;
#X obj 907 293 l;
#X obj 939 217 delay 5;
#X msg 946 380 connect 127.0.0.1 8102;
#X obj 113 61 udpreceive 8103;
#N canvas 107 589 729 294 idhandler 0;
#X obj 76 44 r id0;
#X obj 114 44 r id1;
#X obj 152 44 r id2;
#X obj 190 44 r id3;
#X obj 227 44 r id4;
#X obj 265 44 r id5;
#X msg 76 88 0 \$1;
#X msg 114 88 1 \$1;
#X msg 152 89 2 \$1;
#X msg 190 89 3 \$1;
#X msg 227 89 4 \$1;
#X msg 265 89 5 \$1;
#X obj 94 148 s scale_id;
#X connect 0 0 6 0;
#X connect 1 0 7 0;
#X connect 2 0 8 0;
#X connect 3 0 9 0;
#X connect 4 0 10 0;
#X connect 5 0 11 0;
#X connect 6 0 12 0;
#X connect 7 0 12 0;
#X connect 8 0 12 0;
#X connect 9 0 12 0;
#X connect 10 0 12 0;
#X connect 11 0 12 0;
#X restore 91 418 pd idhandler;
#X obj 658 22 r scale_id;
#X obj 658 56 unpack f f;
#N canvas 198 524 724 277 idvolumehandler 0;
#X obj 36 32 r id0;
#X obj 36 56 sel -1;
#X obj 69 79 t b;
#X obj 135 56 sel -1;
#X obj 168 79 t b;
#X obj 233 56 sel -1;
#X obj 266 79 t b;
#X obj 332 56 sel -1;
#X obj 365 79 t b;
#X obj 427 56 sel -1;
#X obj 460 79 t b;
#X obj 526 56 sel -1;
#X obj 559 79 t b;
#X obj 135 32 r id1;
#X obj 233 32 r id2;
#X obj 332 32 r id3;
#X obj 427 32 r id4;
#X obj 526 32 r id5;
#X obj 526 131 s scale5vol;
#X obj 427 131 s scale4vol;
#X obj 332 131 s scale3vol;
#X obj 233 131 s scale2vol;
#X obj 135 131 s scale1vol;
#X obj 36 131 s scale0vol;
#X msg 36 101 0 1000;
#X msg 135 101 0 1000;
#X msg 233 101 0 1000;
#X msg 332 101 0 1000;
#X msg 427 101 0 1000;
#X msg 526 101 0 1000;
#X msg 88 101 1 10;
#X msg 186 101 1 10;
#X msg 282 101 1 10;
#X msg 382 101 1 10;
#X msg 477 101 1 10;
#X msg 575 101 1 10;
#X connect 0 0 1 0;
#X connect 1 0 24 0;
#X connect 1 1 2 0;
#X connect 2 0 30 0;
#X connect 3 0 25 0;
#X connect 3 1 4 0;
#X connect 4 0 31 0;
#X connect 5 0 26 0;
#X connect 5 1 6 0;
#X connect 6 0 32 0;
#X connect 7 0 27 0;
#X connect 7 1 8 0;
#X connect 8 0 33 0;
#X connect 9 0 28 0;
#X connect 9 1 10 0;
#X connect 10 0 34 0;
#X connect 11 0 29 0;
#X connect 11 1 12 0;
#X connect 12 0 35 0;
#X connect 13 0 3 0;
#X connect 14 0 5 0;
#X connect 15 0 7 0;
#X connect 16 0 9 0;
#X connect 17 0 11 0;
#X connect 24 0 23 0;
#X connect 25 0 22 0;
#X connect 26 0 21 0;
#X connect 27 0 20 0;
#X connect 28 0 19 0;
#X connect 29 0 18 0;
#X connect 30 0 23 0;
#X connect 31 0 22 0;
#X connect 32 0 21 0;
#X connect 33 0 20 0;
#X connect 34 0 19 0;
#X connect 35 0 18 0;
#X restore 226 420 pd idvolumehandler;
#X floatatom 350 145 5 0 0 0 - - -;
#X connect 1 0 3 0;
#X connect 2 0 1 0;
#X connect 3 0 8 0;
#X connect 3 0 32 0;
#X connect 3 1 9 0;
#X connect 3 2 10 0;
#X connect 3 3 11 0;
#X connect 3 4 12 0;
#X connect 3 5 13 0;
#X connect 4 0 5 0;
#X connect 6 0 4 0;
#X connect 7 0 5 0;
#X connect 8 0 23 0;
#X connect 9 0 18 0;
#X connect 10 0 19 0;
#X connect 11 0 20 0;
#X connect 12 0 21 0;
#X connect 13 0 22 0;
#X connect 14 0 17 0;
#X connect 15 0 16 0;
#X connect 17 0 16 1;
#X connect 17 1 16 2;
#X connect 17 2 16 3;
#X connect 24 0 6 0;
#X connect 25 0 24 0;
#X connect 26 0 5 0;
#X connect 27 0 2 0;
#X connect 29 0 30 0;
#X connect 30 0 15 0;
#X connect 30 1 14 0;
